<?xml version="1.0" standalone="no"?>
<!DOCTYPE svg PUBLIC "-//W3C//DTD SVG 20010904//EN"
 "http://www.w3.org/TR/2001/REC-SVG-20010904/DTD/svg10.dtd">
<svg version="1.0" xmlns="http://www.w3.org/2000/svg"
 width="1280.000000pt" height="853.000000pt" viewBox="0 0 1280.000000 853.000000"
 preserveAspectRatio="xMidYMid meet">
<g transform="translate(0.000000,853.000000) scale(0.100000,-0.100000)"
fill="#41d7ff" stroke="none">
<path d="M11460 8510 c-61 -46 -2743 -1750 -2755 -1750 -17 0 -235 341 -235
367 0 11 7 40 15 63 19 55 19 154 0 212 -19 54 -81 119 -144 150 -39 19 -62
23 -146 23 -88 0 -105 -3 -139 -24 -50 -32 -112 -127 -126 -198 -16 -73 -4
-167 26 -220 36 -62 165 -133 243 -133 16 0 38 -8 49 -17 10 -10 95 -137 187
-283 92 -146 175 -273 184 -282 15 -15 132 57 1671 1039 910 580 1659 1059
1664 1064 6 5 -83 9 -230 8 -219 0 -241 -2 -264 -19z m-3151 -1030 c110 -56
142 -190 70 -290 -68 -94 -205 -106 -290 -25 -42 39 -59 82 -59 148 0 139 154
231 279 167z"/>
<path d="M12098 8521 c-2 -7 -3308 -2119 -3486 -2227 -30 -18 -60 -30 -67 -28
-7 3 -54 69 -103 148 -99 154 -122 181 -150 174 -10 -3 -243 -148 -518 -323
-274 -175 -518 -329 -541 -342 -41 -23 -43 -24 -94 -9 -61 18 -157 21 -212 5
-151 -42 -234 -320 -134 -451 71 -92 223 -138 341 -104 105 31 196 154 196
265 0 22 7 48 18 60 29 35 865 562 886 559 13 -2 45 -43 93 -118 121 -190 129
-200 161 -200 15 0 53 15 83 33 89 54 4003 2549 4013 2558 6 5 -96 9 -236 9
-136 0 -248 -4 -250 -9z m-4974 -2676 c110 -52 138 -206 54 -301 -42 -48 -83
-67 -143 -67 -113 0 -195 81 -195 194 0 150 146 239 284 174z"/>
<path d="M12778 8522 c-1 -5 -934 -602 -2073 -1327 -1138 -725 -2089 -1334
-2112 -1352 -24 -19 -43 -39 -43 -46 0 -6 36 -69 81 -139 45 -71 79 -134 76
-141 -2 -6 -71 -54 -153 -106 -157 -98 -204 -135 -204 -159 0 -8 39 -76 87
-151 111 -174 114 -180 102 -203 -12 -23 -118 -91 -133 -85 -6 3 -58 78 -115
168 -123 193 -136 209 -172 209 -18 0 -194 -106 -554 -336 -290 -184 -533
-338 -541 -341 -7 -3 -36 3 -64 12 -28 9 -78 17 -110 17 -162 0 -276 -102
-299 -267 -6 -38 -16 -74 -23 -81 -30 -30 -861 -552 -871 -548 -15 5 -107 150
-107 167 0 10 345 236 482 317 l38 22 66 -22 c154 -51 292 5 356 145 33 75 31
196 -6 259 -46 78 -177 136 -310 136 -103 0 -193 -95 -218 -229 -6 -31 -14
-65 -18 -77 -8 -19 -488 -334 -510 -334 -6 0 -26 25 -45 55 -20 30 -39 55 -44
55 -9 0 -151 220 -151 233 0 4 25 24 56 44 l56 37 50 -18 c242 -86 443 79 407
333 -13 89 -42 131 -126 177 -62 35 -76 39 -158 42 -99 5 -137 -6 -191 -51
-40 -34 -91 -138 -99 -203 -4 -28 -10 -56 -14 -61 -13 -19 -100 -73 -118 -73
-12 1 -41 38 -87 111 -39 61 -75 113 -81 115 -24 9 -102 -36 -453 -258 -354
-225 -364 -231 -381 -212 -31 33 -241 371 -241 387 0 9 7 42 15 74 11 41 14
79 9 131 -9 103 -42 150 -137 197 -84 41 -149 51 -231 36 -71 -13 -112 -42
-157 -112 -127 -198 -21 -431 209 -459 41 -6 71 -15 83 -27 34 -35 240 -366
237 -380 -2 -9 -866 -565 -1920 -1237 l-1918 -1221 0 -167 c0 -93 2 -168 5
-168 3 0 916 580 2028 1288 1112 709 2186 1393 2386 1520 200 128 368 229 373
226 6 -4 6 -10 0 -16 -5 -5 -166 -109 -358 -232 -308 -195 -349 -225 -352
-249 -3 -22 46 -105 224 -385 219 -342 330 -535 319 -552 -3 -5 -1045 -671
-2315 -1480 -2197 -1400 -2310 -1474 -2310 -1501 l0 -29 189 0 c104 0 191 4
193 9 2 5 955 615 2118 1356 1163 741 2150 1370 2193 1398 76 48 78 49 98 31
52 -47 165 29 -2111 -1421 -1169 -745 -2129 -1359 -2135 -1364 -5 -5 81 -9
227 -9 l237 0 58 39 c32 21 947 604 2033 1296 1086 692 1994 1273 2018 1292
23 19 42 39 42 45 0 6 -36 67 -80 136 -44 69 -80 131 -80 138 0 7 71 58 158
113 168 107 202 133 202 156 0 8 -45 85 -100 171 -55 87 -100 163 -100 169 0
19 113 105 139 105 5 0 57 -75 116 -167 126 -197 139 -213 177 -213 19 0 186
101 564 342 l536 341 51 -18 c79 -29 181 -25 250 9 93 45 154 133 164 235 3
31 10 63 14 73 11 20 852 558 874 558 15 0 115 -142 115 -164 0 -10 -425 -288
-499 -326 -19 -10 -35 -8 -92 10 -183 59 -345 -39 -374 -225 -10 -60 10 -162
39 -199 52 -69 224 -131 321 -116 94 14 175 107 197 229 6 31 14 65 18 76 7
18 473 325 506 333 6 2 25 -19 43 -46 17 -27 40 -57 51 -67 11 -10 49 -65 86
-122 75 -118 75 -116 -10 -163 l-45 -24 -53 19 c-68 25 -168 26 -230 2 -55
-22 -121 -89 -151 -155 -15 -35 -21 -67 -20 -127 0 -134 37 -191 163 -249 72
-34 209 -37 268 -7 70 36 121 118 146 234 7 37 15 69 17 71 36 28 101 66 113
66 9 0 48 -49 91 -115 41 -63 80 -115 87 -115 30 1 116 51 453 265 300 192
359 225 370 214 25 -26 245 -380 245 -393 0 -8 -7 -42 -16 -76 -11 -45 -14
-82 -9 -132 10 -98 47 -149 140 -197 66 -34 75 -36 165 -36 78 0 102 4 130 21
44 25 105 106 125 163 20 58 19 155 -1 214 -30 90 -152 177 -247 177 -67 0
-72 6 -197 202 -67 104 -120 196 -118 205 2 8 661 434 1465 946 l1463 932 0
168 c0 92 -2 167 -5 167 -2 0 -391 -246 -862 -547 -2225 -1418 -3005 -1913
-3015 -1913 -31 0 32 45 352 249 309 197 355 230 358 253 3 21 -53 115 -242
412 -135 212 -246 390 -246 397 0 6 -14 34 -31 62 -16 27 -28 55 -26 61 3 7
840 544 1861 1195 l1856 1183 0 139 c0 76 -3 139 -6 139 -4 0 -3440 -2186
-3832 -2438 -20 -13 -25 -13 -43 4 -51 46 -148 -19 1931 1306 l1945 1239 3
155 c1 91 -1 154 -7 154 -5 0 -11 -4 -13 -8z m-3899 -3281 c22 -33 44 -61 49
-63 9 -3 358 -546 368 -572 3 -8 -8 -24 -28 -39 -42 -31 -474 -306 -493 -313
-15 -6 -131 161 -161 231 -8 21 -26 55 -40 76 -13 21 -24 43 -24 48 0 5 65 50
145 101 149 94 178 120 168 149 -4 9 -48 82 -100 162 -51 81 -93 154 -93 162
0 14 142 116 162 117 4 0 25 -27 47 -59z m-5270 -161 c192 -98 110 -386 -105
-368 -104 9 -174 87 -174 195 0 48 5 68 29 104 52 82 164 113 250 69z m1980
-213 c152 -101 89 -340 -93 -355 -213 -18 -295 270 -104 367 59 30 140 25 197
-12z m1382 -467 c156 -80 105 -322 -73 -346 -155 -21 -267 131 -195 266 53
100 164 133 268 80z m591 -150 c123 -35 177 -189 105 -299 -81 -122 -267 -109
-332 23 -31 61 -32 116 -4 173 43 89 135 129 231 103z m-2546 -131 c36 -56 71
-115 76 -133 6 -17 24 -50 40 -73 15 -23 28 -46 28 -51 0 -6 -66 -52 -146
-103 -81 -51 -153 -104 -161 -116 -17 -26 -24 -13 131 -257 31 -49 56 -95 56
-103 0 -13 -145 -112 -165 -113 -6 0 -19 17 -30 37 -11 20 -33 49 -48 64 -27
28 -387 584 -387 599 0 4 8 14 18 22 23 22 505 328 515 328 4 0 37 -45 73
-101z m3320 -184 c48 -28 94 -107 94 -162 0 -92 -75 -179 -168 -196 -92 -18
-200 55 -220 148 -37 174 140 300 294 210z m1911 -206 c40 -15 82 -57 104
-104 68 -147 -76 -313 -232 -266 -49 15 -108 65 -125 108 -30 71 -9 179 42
224 53 46 145 63 211 38z"/>
<path d="M6595 3111 c-121 -31 -198 -124 -214 -257 -5 -43 -14 -71 -27 -83
-36 -35 -857 -551 -876 -551 -13 0 -45 41 -108 138 -120 186 -117 182 -149
182 -34 0 139 109 -2134 -1340 l-1874 -1195 240 -3 c193 -2 243 0 256 12 45
38 3420 2180 3441 2184 22 3 34 -11 115 -140 99 -157 116 -178 143 -178 11 0
253 149 538 331 285 182 532 338 547 346 25 13 34 13 75 -1 59 -21 181 -21
230 0 155 65 218 348 103 463 -76 76 -212 117 -306 92z m136 -102 c92 -31 145
-110 137 -205 -20 -235 -366 -235 -386 0 -11 140 120 248 249 205z"/>
<path d="M3452 1033 l-1612 -1028 239 -3 240 -2 63 43 c120 83 2599 1659 2617
1664 26 7 245 -339 237 -376 -3 -14 -12 -55 -20 -90 -45 -192 83 -350 284
-351 102 0 148 14 191 60 41 43 83 125 93 182 12 64 -4 164 -33 209 -33 52
-126 105 -217 124 -37 8 -73 20 -80 27 -6 7 -91 138 -189 291 -97 152 -182
277 -189 277 -7 0 -737 -462 -1624 -1027z m2165 311 c58 -46 86 -107 79 -173
-15 -163 -200 -236 -323 -128 -20 18 -42 46 -49 64 -30 71 -9 179 42 224 44
39 78 49 146 46 57 -2 73 -7 105 -33z"/>
</g>
</svg>
